<?xml version="1.0" encoding="UTF-8"?> <svg xmlns="http://www.w3.org/2000/svg" width="3027" height="466" viewBox="0 0 3027 466" fill="none"> <path d="M290.4 289H22.2C21.4 293 21 297 21 301C21 304.6 21 308.6 21 313C21 332.2 24 350.4 30 367.6C36.4 384.8 45.2 400 56.4 413.2C67.6 426 81 436.2 96.6 443.8C112.2 451.4 129.6 455.2 148.8 455.2C179.6 455.2 204.4 446.8 223.2 430C242 412.8 257 389.8 268.2 361L290.4 353.8C286 369.4 279.2 383.8 270 397C260.8 409.8 250 421 237.6 430.6C225.2 440.2 211.4 447.8 196.2 453.4C181 458.6 165.2 461.2 148.8 461.2C128.4 461.2 109 457.4 90.6 449.8C72.6 441.8 56.8 431 43.2 417.4C30 403.8 19.4 388 11.4 370C3.8 351.6 8.49366e-07 332.2 8.49366e-07 311.8C8.49366e-07 290.6 3.8 270.8 11.4 252.4C19 233.6 29.4 217.2 42.6 203.2C56.2 189.2 71.8 178.2 89.4 170.2C107.4 162.2 126.6 158.2 147 158.2C165.8 158.6 183.4 162.2 199.8 169C216.2 175.4 230.6 184.4 243 196C255.8 207.6 266.2 221.4 274.2 237.4C282.6 253 288 270.2 290.4 289ZM270.6 283.6C268.2 267.2 263.6 251.8 256.8 237.4C250 223 241.2 210.4 230.4 199.6C220 188.8 207.8 180.2 193.8 173.8C179.8 167.4 164.4 164.2 147.6 164.2C130.8 164.2 115.2 167.2 100.8 173.2C86.8 179.2 74.4 187.6 63.6 198.4C52.8 208.8 43.8 221.4 36.6 236.2C29.8 250.6 25.2 266.4 22.8 283.6H270.6ZM434.048 160V166H385.448V319.6C385.448 339.2 388.648 357.4 395.048 374.2C401.448 390.6 410.048 405 420.848 417.4C432.048 429.8 445.048 439.6 459.848 446.8C475.048 453.6 491.248 457 508.448 457V462.4C486.848 462.8 467.048 459 449.048 451C431.448 442.6 416.048 431.2 402.848 416.8C390.048 402 380.248 384.6 373.448 364.6C366.648 344.2 363.448 322 363.848 298V166H314.648V160H363.848V19L385.448 9.99996V160H434.048ZM823.017 289H554.817C554.017 293 553.617 297 553.617 301C553.617 304.6 553.617 308.6 553.617 313C553.617 332.2 556.617 350.4 562.617 367.6C569.017 384.8 577.817 400 589.017 413.2C600.217 426 613.617 436.2 629.217 443.8C644.817 451.4 662.217 455.2 681.417 455.2C712.217 455.2 737.017 446.8 755.817 430C774.617 412.8 789.617 389.8 800.817 361L823.017 353.8C818.617 369.4 811.817 383.8 802.617 397C793.417 409.8 782.617 421 770.217 430.6C757.817 440.2 744.017 447.8 728.817 453.4C713.617 458.6 697.817 461.2 681.417 461.2C661.017 461.2 641.617 457.4 623.217 449.8C605.217 441.8 589.417 431 575.817 417.4C562.617 403.8 552.017 388 544.017 370C536.417 351.6 532.617 332.2 532.617 311.8C532.617 290.6 536.417 270.8 544.017 252.4C551.617 233.6 562.017 217.2 575.217 203.2C588.817 189.2 604.417 178.2 622.017 170.2C640.017 162.2 659.217 158.2 679.617 158.2C698.417 158.6 716.017 162.2 732.417 169C748.817 175.4 763.217 184.4 775.617 196C788.417 207.6 798.817 221.4 806.817 237.4C815.217 253 820.617 270.2 823.017 289ZM803.217 283.6C800.817 267.2 796.217 251.8 789.417 237.4C782.617 223 773.817 210.4 763.017 199.6C752.617 188.8 740.417 180.2 726.417 173.8C712.417 167.4 697.017 164.2 680.217 164.2C663.417 164.2 647.817 167.2 633.417 173.2C619.417 179.2 607.017 187.6 596.217 198.4C585.417 208.8 576.417 221.4 569.217 236.2C562.417 250.6 557.817 266.4 555.417 283.6H803.217ZM879.066 460V210.4C876.266 211.6 873.666 213 871.266 214.6C869.266 215.8 867.466 216.8 865.866 217.6C863.866 218.8 862.066 220 860.466 221.2V220.6C860.466 219 860.266 217.6 859.866 216.4C863.066 214 866.266 211.8 869.466 209.8C872.666 207.8 875.866 205.8 879.066 203.8V160L900.066 152.2V195.4C911.666 191.8 922.066 191 931.266 193C939.266 194.6 946.066 196.8 951.666 199.6C957.666 202.4 963.266 205.2 968.466 208C973.666 210.8 979.066 213.4 984.666 215.8C990.666 217.8 997.466 219.2 1005.07 220C1011.07 220.4 1016.47 220.4 1021.27 220C1026.47 219.6 1031.27 218.6 1035.67 217C1040.07 215 1044.47 212.2 1048.87 208.6C1053.67 205 1058.67 200.6 1063.87 195.4L1065.67 197.2C1060.47 203.6 1055.07 208.8 1049.47 212.8C1044.27 216.8 1039.07 219.8 1033.87 221.8C1030.27 223 1026.47 224 1022.47 224.8C1019.27 225.6 1015.27 226.2 1010.47 226.6C1006.07 227 1001.07 227 995.466 226.6C993.066 226.2 989.666 225.8 985.266 225.4C980.866 224.6 975.866 223.2 970.266 221.2H969.666C961.266 218.4 954.666 215.6 949.866 212.8C945.066 209.6 938.066 206.2 928.866 202.6C928.066 202.2 927.666 202 927.666 202H927.066C923.066 200.8 918.866 200.2 914.466 200.2C909.666 200.2 904.866 200.8 900.066 202V460H879.066ZM1284.81 460V250.6C1284.81 237.4 1282.21 225.2 1277.01 214C1271.81 202.8 1264.81 193.4 1256.01 185.8C1247.61 177.8 1237.61 171.6 1226.01 167.2C1214.81 162.8 1203.21 160.6 1191.21 160.6C1173.21 160.2 1155.61 164 1138.41 172C1121.61 180 1108.61 191.8 1099.41 207.4V460H1079.01V160L1099.41 149.8V195.4C1109.81 181.8 1123.41 171.6 1140.21 164.8C1157.41 158 1174.41 154.6 1191.21 154.6C1204.01 154.6 1217.01 156.8 1230.21 161.2C1243.41 165.6 1255.61 172 1266.81 180.4C1278.01 188.4 1287.01 198.4 1293.81 210.4C1301.01 222 1304.61 235.4 1304.61 250.6V460H1284.81ZM1612.41 451.6C1608.41 455.2 1604.41 457.8 1600.41 459.4C1596.81 460.6 1592.81 461.2 1588.41 461.2C1582.41 461.2 1576.61 459.8 1571.01 457C1565.41 454.2 1560.21 450.8 1555.41 446.8C1551.01 442.4 1547.21 437.4 1544.01 431.8C1540.81 426.2 1538.61 420.8 1537.41 415.6C1526.61 429.6 1512.81 440.8 1496.01 449.2C1479.61 457.2 1462.41 461.2 1444.41 461.2C1429.61 461.2 1415.81 458.8 1403.01 454C1390.61 448.8 1379.81 441.8 1370.61 433C1361.41 424.2 1354.21 414 1349.01 402.4C1343.81 390.4 1341.21 377.6 1341.21 364C1341.21 350.4 1343.81 337.8 1349.01 326.2C1354.61 314.6 1362.01 304.6 1371.21 296.2C1380.41 287.4 1391.41 280.6 1404.21 275.8C1417.01 271 1430.81 268.6 1445.61 268.6C1463.61 268.6 1480.61 272.2 1496.61 279.4C1512.61 286.2 1525.81 295.8 1536.21 308.2V235.6C1536.21 225.2 1534.21 215.6 1530.21 206.8C1526.21 198 1520.61 190.4 1513.41 184C1506.61 177.6 1498.41 172.6 1488.81 169C1479.21 165.4 1468.81 163.6 1457.61 163.6C1437.21 163.6 1420.21 169.4 1406.61 181C1393.41 192.2 1385.21 209.2 1382.01 232L1362.81 242.2C1362.81 230.2 1365.21 219.2 1370.01 209.2C1375.21 198.8 1382.21 189.8 1391.01 182.2C1399.81 174.6 1409.81 168.6 1421.01 164.2C1432.61 159.8 1444.81 157.6 1457.61 157.6C1470.81 157.6 1483.41 160 1495.41 164.8C1507.41 169.2 1518.01 175.2 1527.21 182.8C1536.41 190.4 1543.61 199.2 1548.81 209.2C1554.41 219.2 1557.21 229.8 1557.21 241V404.2C1557.21 417.4 1560.01 429.2 1565.61 439.6C1571.61 450 1579.61 455.2 1589.61 455.2C1597.21 455.2 1604.61 452.2 1611.81 446.2L1612.41 451.6ZM1536.21 404.2V319.6C1527.01 305.6 1514.21 294.6 1497.81 286.6C1481.81 278.6 1464.81 274.6 1446.81 274.6C1421.61 274.6 1401.41 282.6 1386.21 298.6C1371.01 314.6 1363.41 335.8 1363.41 362.2C1363.41 375.4 1365.41 387.8 1369.41 399.4C1373.41 410.6 1379.01 420.4 1386.21 428.8C1393.81 437.2 1402.61 443.8 1412.61 448.6C1423.01 453 1434.21 455.2 1446.21 455.2C1464.21 455.2 1481.21 450.6 1497.21 441.4C1513.61 431.8 1526.61 419.4 1536.21 404.2ZM1649.71 460V7.6L1670.71 0.399981V460H1649.71ZM2067.48 460V7.6L2088.48 0.399981V460H2067.48ZM2281.81 157C2303.41 157.4 2323.61 161.6 2342.41 169.6C2361.61 177.6 2378.01 188.6 2391.61 202.6C2405.61 216.2 2416.61 232.4 2424.61 251.2C2432.61 270 2436.61 290.2 2436.61 311.8C2436.61 332.6 2432.41 352.2 2424.01 370.6C2416.01 388.6 2405.01 404.4 2391.01 418C2377.01 431.2 2360.61 441.8 2341.81 449.8C2323.01 457.8 2303.01 461.8 2281.81 461.8C2260.21 462.2 2239.81 458.4 2220.61 450.4C2201.41 442.4 2184.81 431.6 2170.81 418C2156.81 404.4 2145.61 388.4 2137.21 370C2129.21 351.6 2125.21 332.2 2125.21 311.8C2125.21 290.6 2129.21 270.6 2137.21 251.8C2145.61 232.6 2156.81 216 2170.81 202C2184.81 188 2201.41 177 2220.61 169C2239.81 160.6 2260.21 156.6 2281.81 157ZM2281.81 456.4C2301.81 456.4 2320.01 452.6 2336.41 445C2352.81 437 2366.81 426.4 2378.41 413.2C2390.01 399.6 2399.01 384 2405.41 366.4C2411.81 348.4 2415.21 329.4 2415.61 309.4C2416.01 290.2 2413.01 271.8 2406.61 254.2C2400.61 236.6 2391.61 221 2379.61 207.4C2368.01 193.8 2353.81 183 2337.01 175C2320.61 166.6 2302.21 162.4 2281.81 162.4C2261.41 162.4 2242.81 166.4 2226.01 174.4C2209.61 182 2195.41 192.6 2183.41 206.2C2171.41 219.4 2162.21 235.2 2155.81 253.6C2149.41 271.6 2146.21 291.2 2146.21 312.4C2146.21 332 2149.41 350.6 2155.81 368.2C2162.61 385.4 2172.01 400.6 2184.01 413.8C2196.01 427 2210.21 437.4 2226.61 445C2243.41 452.6 2261.81 456.4 2281.81 456.4ZM2711.75 152.8L2602.55 454L2584.55 466L2460.95 169L2477.75 154.6L2599.55 446.2L2705.15 152.8H2711.75ZM3026.14 289H2757.94C2757.14 293 2756.74 297 2756.74 301C2756.74 304.6 2756.74 308.6 2756.74 313C2756.74 332.2 2759.74 350.4 2765.74 367.6C2772.14 384.8 2780.94 400 2792.14 413.2C2803.34 426 2816.74 436.2 2832.34 443.8C2847.94 451.4 2865.34 455.2 2884.54 455.2C2915.34 455.2 2940.14 446.8 2958.94 430C2977.74 412.8 2992.74 389.8 3003.94 361L3026.14 353.8C3021.74 369.4 3014.94 383.8 3005.74 397C2996.54 409.8 2985.74 421 2973.34 430.6C2960.94 440.2 2947.14 447.8 2931.94 453.4C2916.74 458.6 2900.94 461.2 2884.54 461.2C2864.14 461.2 2844.74 457.4 2826.34 449.8C2808.34 441.8 2792.54 431 2778.94 417.4C2765.74 403.8 2755.14 388 2747.14 370C2739.54 351.6 2735.74 332.2 2735.74 311.8C2735.74 290.6 2739.54 270.8 2747.14 252.4C2754.74 233.6 2765.14 217.2 2778.34 203.2C2791.94 189.2 2807.54 178.2 2825.14 170.2C2843.14 162.2 2862.34 158.2 2882.74 158.2C2901.54 158.6 2919.14 162.2 2935.54 169C2951.94 175.4 2966.34 184.4 2978.74 196C2991.54 207.6 3001.94 221.4 3009.94 237.4C3018.34 253 3023.74 270.2 3026.14 289ZM3006.34 283.6C3003.94 267.2 2999.34 251.8 2992.54 237.4C2985.74 223 2976.94 210.4 2966.14 199.6C2955.74 188.8 2943.54 180.2 2929.54 173.8C2915.54 167.4 2900.14 164.2 2883.34 164.2C2866.54 164.2 2850.94 167.2 2836.54 173.2C2822.54 179.2 2810.14 187.6 2799.34 198.4C2788.54 208.8 2779.54 221.4 2772.34 236.2C2765.54 250.6 2760.94 266.4 2758.54 283.6H3006.34Z" fill="white"></path> </svg> 